<svg width="123" height="102" viewBox="0 0 123 102" fill="none" xmlns="http://www.w3.org/2000/svg">
<g clip-path="url(#clip0_35_3)">
<path d="M12.64 77.2699L12.95 22.3499H6.75V92.2299C15.27 90.0299 23.82 88.6299 32.43 88.5699C40.38 88.5199 48.33 89.6299 56.3 92.3299C51.35 88.3199 45.83 85.3699 39.94 83.4499C32.52 81.0299 24.5 80.2299 16.28 80.9299C14.42 81.0799 12.8 79.6999 12.64 77.8499C12.62 77.6499 12.62 77.4599 12.64 77.2699ZM103.62 19.4799C103.6 19.3199 103.58 19.1499 103.58 18.9699C103.58 18.7999 103.59 18.6299 103.62 18.4599V7.33994C95.82 6.59994 87.78 7.45994 80.76 10.1199C74.2 12.6099 68.54 16.6999 64.86 22.5599V85.8999C70.58 82.0799 76.43 78.9399 82.44 76.7999C89.29 74.3599 96.33 73.1999 103.62 73.7799V19.4799ZM110.37 15.5999H119.51C121.37 15.5999 122.88 17.1099 122.88 18.9699V96.6299C122.88 98.4899 121.37 99.9999 119.51 99.9999C119.13 99.9999 118.76 99.9399 118.42 99.8199C109.02 97.1299 99.68 95.3399 90.43 95.2799C81.41 95.2199 72.4 96.8099 63.35 100.8C62.79 101.17 62.12 101.37 61.43 101.36C60.75 101.37 60.08 101.17 59.51 100.8C50.47 96.7999 41.45 95.2199 32.43 95.2799C23.18 95.3399 13.85 97.1299 4.44 99.8199C4.1 99.9399 3.73 99.9999 3.35 99.9999C1.51 100.01 0 98.4999 0 96.6399V18.9699C0 17.1099 1.51 15.5999 3.37 15.5999H12.98L13.04 4.33994C13.05 2.71994 14.19 1.37994 15.72 1.05994C24.59 -0.790057 35.37 -0.330057 44.82 3.28994C51.35 5.78994 57.28 9.77994 61.61 15.5399C65.98 10.1699 71.82 6.30994 78.39 3.81994C87.37 0.409942 97.73 -0.410057 107.48 1.01994C109.16 1.25994 110.36 2.70994 110.36 4.34994V15.5999H110.37ZM68.13 91.8199C75.58 89.4799 83.02 88.5199 90.46 88.5599C99.07 88.6099 107.62 90.0199 116.14 92.2199V22.3499H110.37V77.5699C110.37 79.4299 108.86 80.9399 107 80.9399C106.73 80.9399 106.47 80.9099 106.22 80.8499C98.84 79.6899 91.69 80.6499 84.71 83.1399C79.09 85.1499 73.57 88.1499 68.13 91.8199ZM58.12 85.2499V22.4599C54.59 16.2299 48.88 12.0599 42.43 9.58994C35.12 6.78994 26.91 6.15994 19.75 7.17994L19.37 73.9899C27.18 73.7099 34.82 74.6999 42.01 77.0499C47.73 78.9099 53.15 81.6399 58.12 85.2499Z" fill="white"/>
</g>
<defs>
<clipPath id="clip0_35_3">
<rect width="122.88" height="101.37" fill="white"/>
</clipPath>
</defs>
</svg>
