<svg width="32" height="32" viewBox="0 0 32 32" fill="none" xmlns="http://www.w3.org/2000/svg">
<path d="M3 25L5.6 20.8C7.1 18.5 9.6 17 12.4 17H19C19 19.2 17.2 21 15 21H13" stroke="white" stroke-width="2" stroke-miterlimit="10" stroke-linecap="round" stroke-linejoin="round"/>
<path d="M15 21H23L24.2 19.4C25.3 17.9 27.1 17 29 17L26.3 21.8C24.9 24.4 22.1 26 19.2 26C14.5 26 9.9 27.4 6 30" stroke="white" stroke-width="2" stroke-miterlimit="10" stroke-linecap="round" stroke-linejoin="round"/>
<path d="M5 12H27" stroke="white" stroke-width="2" stroke-miterlimit="10" stroke-linecap="round" stroke-linejoin="round"/>
<path d="M7.4 18.8C5.9 16.9 5 14.6 5 12C5 5.9 9.9 1 16 1C22.1 1 27 5.9 27 12C27 14.8 25.9 17.4 24.2 19.4" stroke="white" stroke-width="2" stroke-miterlimit="10" stroke-linecap="round" stroke-linejoin="round"/>
<path d="M11.5 17.1C11.1 15.6 10.9 13.9 10.9 12C10.9 5.9 13.2 1 16 1C18.8 1 21.1 5.9 21.1 12C21.1 15.6 20.3 18.9 19 20.9" stroke="white" stroke-width="2" stroke-miterlimit="10" stroke-linecap="round" stroke-linejoin="round"/>
</svg>
