<?xml version="1.0" encoding="UTF-8"?>
<svg xmlns="http://www.w3.org/2000/svg" xmlns:xlink="http://www.w3.org/1999/xlink" viewBox="0 0 48 48" width="48px" height="48px">
<g id="surface21713077">
<path style="fill-rule:nonzero;fill:rgb(100%,23.921569%,0%);fill-opacity:1;stroke-width:10;stroke-linecap:butt;stroke-linejoin:round;stroke:rgb(0%,0%,0%);stroke-opacity:1;stroke-miterlimit:10;" d="M 203.404576 159.61336 C 201.523147 169.50046 193.517476 177.026176 183.630375 178.446846 C 168.079789 180.808232 142.200543 183.630375 113 183.630375 C 84.279412 183.630375 58.380968 180.808232 42.369624 178.446846 C 32.482524 177.026176 24.476852 169.50046 22.595423 159.61336 C 20.713994 148.785545 18.832566 132.774201 18.832566 113 C 18.832566 93.225798 20.713994 77.214455 22.595423 66.38664 C 24.476852 56.499539 32.482524 48.973824 42.369624 47.553153 C 57.92021 45.191768 83.799456 42.369624 113 42.369624 C 142.200543 42.369624 167.619031 45.191768 183.630375 47.553153 C 193.517476 48.973824 201.523147 56.499539 203.404576 66.38664 C 205.286005 77.214455 207.628192 93.225798 207.628192 113 C 207.167434 132.774201 205.286005 148.785545 203.404576 159.61336 Z M 203.404576 159.61336 " transform="matrix(0.203469,0,0,0.203469,1.008,1.008)"/>
<path style="fill-rule:nonzero;fill:rgb(100%,100%,100%);fill-opacity:1;stroke-width:10;stroke-linecap:butt;stroke-linejoin:round;stroke:rgb(0%,0%,0%);stroke-opacity:1;stroke-miterlimit:10;" d="M 94.166513 145.963401 L 94.166513 80.036598 L 150.666973 113 Z M 94.166513 145.963401 " transform="matrix(0.203469,0,0,0.203469,1.008,1.008)"/>
<path style=" stroke:none;fill-rule:nonzero;fill:rgb(100%,23.921569%,0%);fill-opacity:1;" d="M 42.394531 33.484375 C 42.011719 35.496094 40.382812 37.027344 38.371094 37.316406 C 35.207031 37.796875 29.941406 38.371094 24 38.371094 C 18.15625 38.371094 12.886719 37.796875 9.628906 37.316406 C 7.617188 37.027344 5.988281 35.496094 5.605469 33.484375 C 5.222656 31.28125 4.839844 28.023438 4.839844 24 C 4.839844 19.976562 5.222656 16.71875 5.605469 14.515625 C 5.988281 12.503906 7.617188 10.972656 9.628906 10.683594 C 12.792969 10.203125 18.058594 9.628906 24 9.628906 C 29.941406 9.628906 35.113281 10.203125 38.371094 10.683594 C 40.382812 10.972656 42.011719 12.503906 42.394531 14.515625 C 42.777344 16.71875 43.253906 19.976562 43.253906 24 C 43.160156 28.023438 42.777344 31.28125 42.394531 33.484375 Z M 42.394531 33.484375 "/>
<path style=" stroke:none;fill-rule:nonzero;fill:rgb(100%,100%,100%);fill-opacity:1;" d="M 20.167969 30.707031 L 20.167969 17.292969 L 31.664062 24 Z M 20.167969 30.707031 "/>
</g>
</svg>
